<svg width="128" height="128" viewBox="0 0 128 128" fill="none" xmlns="http://www.w3.org/2000/svg">
<g id="vuesax/bold/quote-down">
<g id="vuesax/bold/quote-down_2">
<g id="quote-down">
<path id="Vector" d="M84.8532 65.9734H109.867C109.44 90.8801 104.533 94.9868 89.2266 104.053C87.4666 105.12 86.8799 107.36 87.9466 109.173C89.0132 110.933 91.2532 111.52 93.0666 110.453C111.093 99.7868 117.387 93.2801 117.387 62.2401V33.4934C117.387 24.3734 109.973 17.0134 100.907 17.0134H84.9066C75.5199 17.0134 68.4266 24.1068 68.4266 33.4934V49.4934C68.3732 58.8801 75.4666 65.9734 84.8532 65.9734Z" fill="#667085" fill-opacity="0.3"/>
<path id="Vector_2" d="M27.1466 65.9734H52.16C51.7333 90.8801 46.8266 94.9868 31.52 104.053C29.76 105.12 29.1733 107.36 30.24 109.173C31.3066 110.933 33.5466 111.52 35.36 110.453C53.3866 99.7868 59.68 93.2801 59.68 62.2401V33.4934C59.68 24.3734 52.2666 17.0134 43.2 17.0134H27.2C17.76 17.0134 10.6666 24.1068 10.6666 33.4934V49.4934C10.6666 58.8801 17.76 65.9734 27.1466 65.9734Z" fill="#667085" fill-opacity="0.3"/>
</g>
</g>
</g>
</svg>
